<svg width="140" height="42" viewBox="0 0 140 42" fill="none" xmlns="http://www.w3.org/2000/svg">
<g clip-path="url(#clip0_251_6)">
<path d="M24.7225 18.5686C24.7523 16.2642 25.962 14.1355 27.928 12.9285C26.6821 11.1516 24.6701 10.0653 22.4991 9.99751C20.2149 9.75807 18.0005 11.3625 16.8365 11.3625C15.65 11.3625 13.858 10.0213 11.9281 10.0609C9.38897 10.1429 7.07918 11.5496 5.84384 13.7665C3.21313 18.315 5.17541 24.9998 7.69541 28.6764C8.95621 30.4767 10.4297 32.4878 12.3578 32.4165C14.2445 32.3384 14.9492 31.215 17.2266 31.215C19.4829 31.215 20.1441 32.4165 22.1113 32.3712C24.1359 32.3384 25.4114 30.5628 26.628 28.7454C27.5339 27.4626 28.2309 26.0448 28.6934 24.5445C26.2888 23.5289 24.7254 21.176 24.7225 18.5686Z" fill="#4B4B4B"/>
<path d="M21.0068 7.57956C22.1107 6.25619 22.6546 4.55523 22.5229 2.83789C20.8364 3.01478 19.2785 3.81972 18.1598 5.09231C17.055 6.34789 16.4953 7.99053 16.604 9.65843C18.3131 9.676 19.9358 8.90979 21.0068 7.57956Z" fill="#4B4B4B"/>
</g>
<path d="M51.9437 13H49.1078V5H51.9672C52.7719 5 53.4646 5.16016 54.0453 5.48047C54.626 5.79818 55.0726 6.25521 55.3851 6.85156C55.7002 7.44792 55.8578 8.16146 55.8578 8.99219C55.8578 9.82552 55.7002 10.5417 55.3851 11.1406C55.0726 11.7396 54.6234 12.1992 54.0375 12.5195C53.4541 12.8398 52.7562 13 51.9437 13ZM50.7992 11.5508H51.8734C52.3734 11.5508 52.794 11.4622 53.1351 11.2852C53.4789 11.1055 53.7367 10.8281 53.9086 10.4531C54.083 10.0755 54.1703 9.58854 54.1703 8.99219C54.1703 8.40104 54.083 7.91797 53.9086 7.54297C53.7367 7.16797 53.4802 6.89193 53.139 6.71484C52.7979 6.53776 52.3773 6.44922 51.8773 6.44922H50.7992V11.5508ZM59.7904 13.1172C59.1836 13.1172 58.6589 12.9883 58.2162 12.7305C57.7761 12.4701 57.4362 12.1081 57.1967 11.6445C56.9571 11.1784 56.8373 10.638 56.8373 10.0234C56.8373 9.40365 56.9571 8.86198 57.1967 8.39844C57.4362 7.93229 57.7761 7.57031 58.2162 7.3125C58.6589 7.05208 59.1836 6.92188 59.7904 6.92188C60.3972 6.92188 60.9206 7.05208 61.3607 7.3125C61.8034 7.57031 62.1446 7.93229 62.3842 8.39844C62.6237 8.86198 62.7435 9.40365 62.7435 10.0234C62.7435 10.638 62.6237 11.1784 62.3842 11.6445C62.1446 12.1081 61.8034 12.4701 61.3607 12.7305C60.9206 12.9883 60.3972 13.1172 59.7904 13.1172ZM59.7982 11.8281C60.0743 11.8281 60.3047 11.75 60.4896 11.5938C60.6745 11.4349 60.8138 11.2187 60.9076 10.9453C61.0039 10.6719 61.0521 10.3607 61.0521 10.0117C61.0521 9.66276 61.0039 9.35156 60.9076 9.07812C60.8138 8.80469 60.6745 8.58854 60.4896 8.42969C60.3047 8.27083 60.0743 8.19141 59.7982 8.19141C59.5196 8.19141 59.2852 8.27083 59.0951 8.42969C58.9076 8.58854 58.7657 8.80469 58.6693 9.07812C58.5756 9.35156 58.5287 9.66276 58.5287 10.0117C58.5287 10.3607 58.5756 10.6719 58.6693 10.9453C58.7657 11.2187 58.9076 11.4349 59.0951 11.5938C59.2852 11.75 59.5196 11.8281 59.7982 11.8281ZM64.8588 13L63.226 7H64.9095L65.8392 11.0312H65.8939L66.8627 7H68.515L69.4994 11.0078H69.5502L70.4642 7H72.1439L70.515 13H68.7533L67.722 9.22656H67.6478L66.6166 13H64.8588ZM74.6957 9.53125V13H73.0316V7H74.6176V8.05859H74.6879C74.8207 7.70964 75.0433 7.43359 75.3558 7.23047C75.6683 7.02474 76.0472 6.92188 76.4926 6.92188C76.9092 6.92188 77.2725 7.01302 77.5824 7.19531C77.8923 7.3776 78.1332 7.63802 78.3051 7.97656C78.4769 8.3125 78.5629 8.71354 78.5629 9.17969V13H76.8988V9.47656C76.9014 9.10937 76.8077 8.82292 76.6176 8.61719C76.4274 8.40885 76.1657 8.30469 75.8324 8.30469C75.6084 8.30469 75.4105 8.35286 75.2386 8.44922C75.0694 8.54557 74.9366 8.6862 74.8402 8.87109C74.7465 9.05339 74.6983 9.27344 74.6957 9.53125ZM81.5385 5V13H79.8744V5H81.5385ZM85.5824 13.1172C84.9756 13.1172 84.4509 12.9883 84.0082 12.7305C83.5681 12.4701 83.2282 12.1081 82.9886 11.6445C82.7491 11.1784 82.6293 10.638 82.6293 10.0234C82.6293 9.40365 82.7491 8.86198 82.9886 8.39844C83.2282 7.93229 83.5681 7.57031 84.0082 7.3125C84.4509 7.05208 84.9756 6.92188 85.5824 6.92188C86.1892 6.92188 86.7126 7.05208 87.1527 7.3125C87.5954 7.57031 87.9366 7.93229 88.1761 8.39844C88.4157 8.86198 88.5355 9.40365 88.5355 10.0234C88.5355 10.638 88.4157 11.1784 88.1761 11.6445C87.9366 12.1081 87.5954 12.4701 87.1527 12.7305C86.7126 12.9883 86.1892 13.1172 85.5824 13.1172ZM85.5902 11.8281C85.8663 11.8281 86.0967 11.75 86.2816 11.5938C86.4665 11.4349 86.6058 11.2187 86.6996 10.9453C86.7959 10.6719 86.8441 10.3607 86.8441 10.0117C86.8441 9.66276 86.7959 9.35156 86.6996 9.07812C86.6058 8.80469 86.4665 8.58854 86.2816 8.42969C86.0967 8.27083 85.8663 8.19141 85.5902 8.19141C85.3116 8.19141 85.0772 8.27083 84.8871 8.42969C84.6996 8.58854 84.5577 8.80469 84.4613 9.07812C84.3676 9.35156 84.3207 9.66276 84.3207 10.0117C84.3207 10.3607 84.3676 10.6719 84.4613 10.9453C84.5577 11.2187 84.6996 11.4349 84.8871 11.5938C85.0772 11.75 85.3116 11.8281 85.5902 11.8281ZM91.3285 13.1133C90.9457 13.1133 90.6045 13.0469 90.3051 12.9141C90.0056 12.7786 89.7686 12.5794 89.5941 12.3164C89.4222 12.0508 89.3363 11.7201 89.3363 11.3242C89.3363 10.9909 89.3975 10.7109 89.5199 10.4844C89.6423 10.2578 89.809 10.0755 90.0199 9.9375C90.2308 9.79948 90.4704 9.69531 90.7386 9.625C91.0095 9.55469 91.2933 9.50521 91.5902 9.47656C91.9392 9.4401 92.2204 9.40625 92.434 9.375C92.6475 9.34115 92.8024 9.29167 92.8988 9.22656C92.9952 9.16146 93.0433 9.0651 93.0433 8.9375V8.91406C93.0433 8.66667 92.9652 8.47526 92.809 8.33984C92.6553 8.20443 92.4366 8.13672 92.1527 8.13672C91.8532 8.13672 91.6149 8.20312 91.4379 8.33594C91.2608 8.46615 91.1436 8.63021 91.0863 8.82812L89.5472 8.70312C89.6254 8.33854 89.779 8.02344 90.0082 7.75781C90.2373 7.48958 90.5329 7.28385 90.8949 7.14062C91.2595 6.99479 91.6814 6.92188 92.1605 6.92188C92.4939 6.92188 92.8129 6.96094 93.1176 7.03906C93.4248 7.11719 93.697 7.23828 93.934 7.40234C94.1735 7.56641 94.3623 7.77734 94.5004 8.03516C94.6384 8.29036 94.7074 8.59635 94.7074 8.95312V13H93.1293V12.168H93.0824C92.986 12.3555 92.8571 12.5208 92.6957 12.6641C92.5342 12.8047 92.3402 12.9154 92.1136 12.9961C91.8871 13.0742 91.6254 13.1133 91.3285 13.1133ZM91.8051 11.9648C92.0498 11.9648 92.266 11.9167 92.4535 11.8203C92.641 11.7214 92.7881 11.5885 92.8949 11.4219C93.0017 11.2552 93.0551 11.0664 93.0551 10.8555V10.2188C93.003 10.2526 92.9314 10.2839 92.8402 10.3125C92.7517 10.3385 92.6514 10.3633 92.5394 10.3867C92.4274 10.4076 92.3155 10.4271 92.2035 10.4453C92.0915 10.4609 91.9899 10.4753 91.8988 10.4883C91.7035 10.5169 91.5329 10.5625 91.3871 10.625C91.2413 10.6875 91.128 10.7721 91.0472 10.8789C90.9665 10.9831 90.9261 11.1133 90.9261 11.2695C90.9261 11.4961 91.0082 11.6693 91.1722 11.7891C91.3389 11.9062 91.5498 11.9648 91.8051 11.9648ZM98.2094 13.0977C97.7536 13.0977 97.3409 12.9805 96.9711 12.7461C96.6039 12.5091 96.3122 12.1615 96.0961 11.7031C95.8825 11.2422 95.7758 10.6771 95.7758 10.0078C95.7758 9.32031 95.8864 8.7487 96.1078 8.29297C96.3291 7.83464 96.6234 7.49219 96.9906 7.26563C97.3604 7.03646 97.7653 6.92188 98.2054 6.92188C98.5414 6.92188 98.8213 6.97917 99.0453 7.09375C99.2719 7.20573 99.4541 7.34635 99.5922 7.51562C99.7328 7.68229 99.8396 7.84635 99.9125 8.00781H99.9633V5H101.623V13H99.9828V12.0391H99.9125C99.8344 12.2057 99.7237 12.3711 99.5804 12.5352C99.4398 12.6966 99.2562 12.8307 99.0297 12.9375C98.8057 13.0443 98.5323 13.0977 98.2094 13.0977ZM98.7367 11.7734C99.0049 11.7734 99.2315 11.7005 99.4164 11.5547C99.6039 11.4062 99.7471 11.1992 99.8461 10.9336C99.9476 10.668 99.9984 10.3568 99.9984 10C99.9984 9.64323 99.9489 9.33333 99.85 9.07031C99.751 8.80729 99.6078 8.60417 99.4203 8.46094C99.2328 8.31771 99.0049 8.24609 98.7367 8.24609C98.4633 8.24609 98.2328 8.32031 98.0453 8.46875C97.8578 8.61719 97.7159 8.82292 97.6195 9.08594C97.5232 9.34896 97.475 9.65365 97.475 10C97.475 10.349 97.5232 10.6576 97.6195 10.9258C97.7185 11.1914 97.8604 11.3997 98.0453 11.5508C98.2328 11.6992 98.4633 11.7734 98.7367 11.7734ZM108.248 13.1172C107.642 13.1172 107.117 12.9883 106.674 12.7305C106.234 12.4701 105.894 12.1081 105.655 11.6445C105.415 11.1784 105.295 10.638 105.295 10.0234C105.295 9.40365 105.415 8.86198 105.655 8.39844C105.894 7.93229 106.234 7.57031 106.674 7.3125C107.117 7.05208 107.642 6.92188 108.248 6.92188C108.855 6.92188 109.379 7.05208 109.819 7.3125C110.261 7.57031 110.603 7.93229 110.842 8.39844C111.082 8.86198 111.202 9.40365 111.202 10.0234C111.202 10.638 111.082 11.1784 110.842 11.6445C110.603 12.1081 110.261 12.4701 109.819 12.7305C109.379 12.9883 108.855 13.1172 108.248 13.1172ZM108.256 11.8281C108.532 11.8281 108.763 11.75 108.948 11.5938C109.133 11.4349 109.272 11.2187 109.366 10.9453C109.462 10.6719 109.51 10.3607 109.51 10.0117C109.51 9.66276 109.462 9.35156 109.366 9.07812C109.272 8.80469 109.133 8.58854 108.948 8.42969C108.763 8.27083 108.532 8.19141 108.256 8.19141C107.978 8.19141 107.743 8.27083 107.553 8.42969C107.366 8.58854 107.224 8.80469 107.127 9.07812C107.034 9.35156 106.987 9.66276 106.987 10.0117C106.987 10.3607 107.034 10.6719 107.127 10.9453C107.224 11.2187 107.366 11.4349 107.553 11.5938C107.743 11.75 107.978 11.8281 108.256 11.8281ZM113.948 9.53125V13H112.284V7H113.87V8.05859H113.94C114.073 7.70964 114.295 7.43359 114.608 7.23047C114.92 7.02474 115.299 6.92188 115.745 6.92188C116.161 6.92188 116.524 7.01302 116.834 7.19531C117.144 7.3776 117.385 7.63802 117.557 7.97656C117.729 8.3125 117.815 8.71354 117.815 9.17969V13H116.151V9.47656C116.153 9.10937 116.06 8.82292 115.87 8.61719C115.679 8.40885 115.418 8.30469 115.084 8.30469C114.86 8.30469 114.662 8.35286 114.491 8.44922C114.321 8.54557 114.189 8.6862 114.092 8.87109C113.998 9.05339 113.95 9.27344 113.948 9.53125ZM124.864 7V8.25H121.25V7H124.864ZM122.071 5.5625H123.735V11.1562C123.735 11.3099 123.758 11.4297 123.805 11.5156C123.852 11.599 123.917 11.6576 124 11.6914C124.086 11.7253 124.185 11.7422 124.297 11.7422C124.375 11.7422 124.453 11.7357 124.532 11.7227C124.61 11.707 124.67 11.6953 124.711 11.6875L124.973 12.9258C124.89 12.9518 124.773 12.9818 124.621 13.0156C124.47 13.0521 124.287 13.0742 124.071 13.082C123.67 13.0977 123.318 13.0443 123.016 12.9219C122.717 12.7995 122.483 12.6094 122.317 12.3516C122.15 12.0937 122.068 11.7682 122.071 11.375V5.5625ZM127.741 9.53125V13H126.077V5H127.694V8.05859H127.764C127.899 7.70443 128.118 7.42708 128.42 7.22656C128.722 7.02344 129.101 6.92188 129.557 6.92188C129.974 6.92188 130.337 7.01302 130.647 7.19531C130.959 7.375 131.202 7.63411 131.373 7.97266C131.548 8.30859 131.634 8.71094 131.631 9.17969V13H129.967V9.47656C129.97 9.10677 129.876 8.81901 129.686 8.61328C129.498 8.40755 129.235 8.30469 128.897 8.30469C128.67 8.30469 128.47 8.35286 128.295 8.44922C128.123 8.54557 127.988 8.6862 127.889 8.87109C127.793 9.05339 127.743 9.27344 127.741 9.53125ZM135.675 13.1172C135.058 13.1172 134.527 12.9922 134.081 12.7422C133.639 12.4896 133.298 12.1328 133.058 11.6719C132.818 11.2083 132.699 10.6602 132.699 10.0273C132.699 9.41016 132.818 8.86849 133.058 8.40234C133.298 7.9362 133.635 7.57292 134.07 7.3125C134.507 7.05208 135.02 6.92188 135.609 6.92188C136.005 6.92188 136.373 6.98568 136.714 7.11328C137.058 7.23828 137.357 7.42708 137.613 7.67969C137.87 7.93229 138.071 8.25 138.214 8.63281C138.357 9.01302 138.429 9.45833 138.429 9.96875V10.4258H133.363V9.39453H136.863C136.863 9.15495 136.811 8.94271 136.706 8.75781C136.602 8.57292 136.458 8.42839 136.273 8.32422C136.091 8.21745 135.878 8.16406 135.636 8.16406C135.384 8.16406 135.16 8.22266 134.964 8.33984C134.772 8.45443 134.62 8.60937 134.511 8.80469C134.402 8.9974 134.346 9.21224 134.343 9.44922V10.4297C134.343 10.7266 134.398 10.9831 134.507 11.1992C134.619 11.4154 134.777 11.582 134.98 11.6992C135.183 11.8164 135.424 11.875 135.703 11.875C135.887 11.875 136.057 11.849 136.21 11.7969C136.364 11.7448 136.495 11.6667 136.605 11.5625C136.714 11.4583 136.798 11.3307 136.855 11.1797L138.394 11.2812C138.316 11.651 138.156 11.974 137.913 12.25C137.674 12.5234 137.364 12.737 136.984 12.8906C136.606 13.0417 136.17 13.1172 135.675 13.1172Z" fill="#4B4B4B"/>
<path d="M49.3883 34.1875H47.0815L50.5964 24.0057H53.3706L56.8805 34.1875H54.5737L52.0233 26.3324H51.9437L49.3883 34.1875ZM49.2442 30.1854H54.693V31.8658H49.2442V30.1854ZM58.0662 37.0511V26.5511H60.1543V27.8338H60.2488C60.3416 27.6283 60.4758 27.4195 60.6515 27.2074C60.8304 26.992 61.0625 26.813 61.3475 26.6705C61.6358 26.5246 61.9938 26.4517 62.4214 26.4517C62.9782 26.4517 63.4919 26.5975 63.9625 26.8892C64.4332 27.1776 64.8094 27.6134 65.0911 28.1967C65.3728 28.7768 65.5137 29.5043 65.5137 30.3793C65.5137 31.2311 65.3761 31.9503 65.101 32.5369C64.8293 33.1203 64.458 33.5627 63.9874 33.8643C63.5201 34.1626 62.9964 34.3118 62.4164 34.3118C62.0054 34.3118 61.6557 34.2438 61.3674 34.108C61.0823 33.9721 60.8487 33.8014 60.6664 33.5959C60.4841 33.3871 60.3449 33.1766 60.2488 32.9645H60.1841V37.0511H58.0662ZM60.1394 30.3693C60.1394 30.8234 60.2024 31.2195 60.3283 31.5575C60.4543 31.8956 60.6366 32.1591 60.8752 32.348C61.1138 32.5336 61.4038 32.6264 61.7452 32.6264C62.0899 32.6264 62.3816 32.532 62.6202 32.343C62.8589 32.1508 63.0395 31.8857 63.1621 31.5476C63.2881 31.2062 63.351 30.8134 63.351 30.3693C63.351 29.9285 63.2897 29.5407 63.1671 29.206C63.0445 28.8712 62.8638 28.6094 62.6252 28.4205C62.3866 28.2315 62.0932 28.1371 61.7452 28.1371C61.4005 28.1371 61.1089 28.2282 60.8702 28.4105C60.6349 28.5928 60.4543 28.8513 60.3283 29.1861C60.2024 29.5208 60.1394 29.9152 60.1394 30.3693ZM66.9256 37.0511V26.5511H69.0137V27.8338H69.1081C69.2009 27.6283 69.3352 27.4195 69.5108 27.2074C69.6898 26.992 69.9218 26.813 70.2069 26.6705C70.4952 26.5246 70.8532 26.4517 71.2807 26.4517C71.8375 26.4517 72.3513 26.5975 72.8219 26.8892C73.2926 27.1776 73.6687 27.6134 73.9505 28.1967C74.2322 28.7768 74.3731 29.5043 74.3731 30.3793C74.3731 31.2311 74.2355 31.9503 73.9604 32.5369C73.6886 33.1203 73.3174 33.5627 72.8468 33.8643C72.3795 34.1626 71.8558 34.3118 71.2758 34.3118C70.8648 34.3118 70.5151 34.2438 70.2268 34.108C69.9417 33.9721 69.708 33.8014 69.5258 33.5959C69.3435 33.3871 69.2043 33.1766 69.1081 32.9645H69.0435V37.0511H66.9256ZM68.9988 30.3693C68.9988 30.8234 69.0617 31.2195 69.1877 31.5575C69.3136 31.8956 69.4959 32.1591 69.7346 32.348C69.9732 32.5336 70.2632 32.6264 70.6046 32.6264C70.9493 32.6264 71.241 32.532 71.4796 32.343C71.7182 32.1508 71.8989 31.8857 72.0215 31.5476C72.1474 31.2062 72.2104 30.8134 72.2104 30.3693C72.2104 29.9285 72.1491 29.5407 72.0265 29.206C71.9038 28.8712 71.7232 28.6094 71.4846 28.4205C71.2459 28.2315 70.9526 28.1371 70.6046 28.1371C70.2599 28.1371 69.9682 28.2282 69.7296 28.4105C69.4943 28.5928 69.3136 28.8513 69.1877 29.1861C69.0617 29.5208 68.9988 29.9152 68.9988 30.3693ZM84.5884 26.9339C84.5487 26.5329 84.378 26.2214 84.0764 25.9993C83.7748 25.7772 83.3654 25.6662 82.8484 25.6662C82.4971 25.6662 82.2004 25.7159 81.9585 25.8153C81.7165 25.9115 81.5309 26.0457 81.4016 26.218C81.2757 26.3904 81.2127 26.5859 81.2127 26.8047C81.2061 26.987 81.2442 27.1461 81.3271 27.282C81.4132 27.4179 81.5309 27.5355 81.6801 27.6349C81.8292 27.7311 82.0015 27.8156 82.1971 27.8885C82.3926 27.9581 82.6015 28.0178 82.8235 28.0675L83.7383 28.2862C84.1824 28.3857 84.5901 28.5182 84.9613 28.6839C85.3325 28.8497 85.654 29.0535 85.9258 29.2955C86.1976 29.5374 86.408 29.8224 86.5572 30.1506C86.7096 30.4787 86.7875 30.8549 86.7908 31.2791C86.7875 31.9022 86.6284 32.4425 86.3136 32.8999C86.002 33.3539 85.5513 33.7069 84.9613 33.9588C84.3747 34.2074 83.667 34.3317 82.8384 34.3317C82.0165 34.3317 81.3006 34.2057 80.6907 33.9538C80.0842 33.7019 79.6102 33.3291 79.2688 32.8352C78.9308 32.3381 78.7534 31.7232 78.7369 30.9908H80.82C80.8432 31.3321 80.9409 31.6172 81.1133 31.8459C81.289 32.0713 81.5226 32.242 81.8143 32.358C82.1093 32.4706 82.4424 32.527 82.8136 32.527C83.1782 32.527 83.4947 32.474 83.7632 32.3679C84.0349 32.2618 84.2454 32.1143 84.3945 31.9254C84.5437 31.7365 84.6183 31.5194 84.6183 31.2741C84.6183 31.0455 84.5503 30.8532 84.4144 30.6974C84.2819 30.5417 84.0863 30.4091 83.8278 30.2997C83.5726 30.1903 83.2594 30.0909 82.8882 30.0014L81.7795 29.723C80.9211 29.5142 80.2433 29.1877 79.7461 28.7436C79.2489 28.2995 79.002 27.7012 79.0053 26.9489C79.002 26.3324 79.1661 25.7938 79.4975 25.3331C79.8323 24.8724 80.2913 24.5128 80.8747 24.2543C81.458 23.9957 82.1209 23.8665 82.8633 23.8665C83.619 23.8665 84.2785 23.9957 84.842 24.2543C85.4087 24.5128 85.8496 24.8724 86.1644 25.3331C86.4793 25.7938 86.6417 26.3274 86.6516 26.9339H84.5884ZM92.2608 26.5511V28.142H87.6621V26.5511H92.2608ZM88.7062 24.7216H90.8241V31.8409C90.8241 32.0365 90.8539 32.1889 90.9135 32.2983C90.9732 32.4044 91.0561 32.4789 91.1621 32.522C91.2715 32.5651 91.3974 32.5866 91.54 32.5866C91.6394 32.5866 91.7388 32.5784 91.8383 32.5618C91.9377 32.5419 92.0139 32.527 92.067 32.517L92.4 34.093C92.294 34.1262 92.1448 34.1643 91.9526 34.2074C91.7604 34.2538 91.5267 34.282 91.2516 34.2919C90.7412 34.3118 90.2937 34.2438 89.9093 34.0881C89.5281 33.9323 89.2315 33.6903 89.0194 33.3622C88.8072 33.0341 88.7028 32.6198 88.7062 32.1193V24.7216ZM97.0087 34.3366C96.2365 34.3366 95.5686 34.1726 95.0052 33.8445C94.445 33.513 94.0125 33.0523 93.7076 32.4624C93.4027 31.8691 93.2502 31.1813 93.2502 30.3991C93.2502 29.6103 93.4027 28.9209 93.7076 28.331C94.0125 27.7377 94.445 27.277 95.0052 26.9489C95.5686 26.6174 96.2365 26.4517 97.0087 26.4517C97.781 26.4517 98.4472 26.6174 99.0073 26.9489C99.5707 27.277 100.005 27.7377 100.31 28.331C100.615 28.9209 100.767 29.6103 100.767 30.3991C100.767 31.1813 100.615 31.8691 100.31 32.4624C100.005 33.0523 99.5707 33.513 99.0073 33.8445C98.4472 34.1726 97.781 34.3366 97.0087 34.3366ZM97.0187 32.696C97.37 32.696 97.6633 32.5966 97.8986 32.3977C98.1339 32.1955 98.3113 31.9205 98.4306 31.5724C98.5532 31.2244 98.6145 30.8284 98.6145 30.3842C98.6145 29.9401 98.5532 29.544 98.4306 29.196C98.3113 28.848 98.1339 28.5729 97.8986 28.3707C97.6633 28.1686 97.37 28.0675 97.0187 28.0675C96.664 28.0675 96.3657 28.1686 96.1238 28.3707C95.8851 28.5729 95.7045 28.848 95.5819 29.196C95.4625 29.544 95.4029 29.9401 95.4029 30.3842C95.4029 30.8284 95.4625 31.2244 95.5819 31.5724C95.7045 31.9205 95.8851 32.1955 96.1238 32.3977C96.3657 32.5966 96.664 32.696 97.0187 32.696ZM102.144 34.1875V26.5511H104.198V27.8835H104.277C104.416 27.4096 104.65 27.0516 104.978 26.8097C105.306 26.5644 105.684 26.4418 106.112 26.4418C106.218 26.4418 106.332 26.4484 106.455 26.4616C106.577 26.4749 106.685 26.4931 106.778 26.5163V28.3956C106.678 28.3658 106.541 28.3393 106.365 28.3161C106.19 28.2929 106.029 28.2812 105.883 28.2812C105.571 28.2812 105.293 28.3492 105.048 28.4851C104.806 28.6177 104.614 28.8033 104.471 29.0419C104.332 29.2805 104.262 29.5556 104.262 29.8672V34.1875H102.144ZM110.998 34.3366C110.212 34.3366 109.536 34.1776 108.969 33.8594C108.406 33.5379 107.971 33.0838 107.667 32.4972C107.362 31.9072 107.209 31.2095 107.209 30.4041C107.209 29.6186 107.362 28.9292 107.667 28.3359C107.971 27.7427 108.401 27.2803 108.954 26.9489C109.511 26.6174 110.164 26.4517 110.913 26.4517C111.417 26.4517 111.886 26.5329 112.32 26.6953C112.757 26.8544 113.139 27.0947 113.463 27.4162C113.792 27.7377 114.047 28.142 114.229 28.6293C114.411 29.1132 114.502 29.6799 114.502 30.3295V30.9112H108.054V29.5987H112.509C112.509 29.2938 112.443 29.0237 112.31 28.7884C112.177 28.553 111.994 28.3691 111.758 28.2365C111.526 28.1006 111.256 28.0327 110.948 28.0327C110.626 28.0327 110.341 28.1072 110.093 28.2564C109.847 28.4022 109.655 28.5994 109.516 28.848C109.377 29.0933 109.306 29.3667 109.302 29.6683V30.9162C109.302 31.294 109.372 31.6205 109.511 31.8956C109.654 32.1707 109.854 32.3828 110.113 32.532C110.371 32.6811 110.678 32.7557 111.032 32.7557C111.268 32.7557 111.483 32.7225 111.679 32.6562C111.874 32.59 112.042 32.4905 112.181 32.358C112.32 32.2254 112.426 32.063 112.499 31.8707L114.458 32C114.358 32.4706 114.154 32.8816 113.846 33.233C113.541 33.581 113.147 33.8527 112.663 34.0483C112.182 34.2405 111.627 34.3366 110.998 34.3366Z" fill="#4B4B4B"/>
<defs>
<clipPath id="clip0_251_6">
<rect width="34" height="34" fill="white" transform="translate(0 1)"/>
</clipPath>
</defs>
</svg>
