<svg width="131" height="42" viewBox="0 0 131 42" fill="none" xmlns="http://www.w3.org/2000/svg">
<g clip-path="url(#clip0_251_5)">
<path fill-rule="evenodd" clip-rule="evenodd" d="M4.04736 4.81679C4.04736 4.61025 4.0638 4.41697 4.09523 4.23774L16.9603 17.8195L4.0746 31.423C4.05664 31.283 4.04736 31.1353 4.04736 30.98V4.81679ZM5.46521 33.0894C5.93865 33.1659 6.49992 33.0507 7.10043 32.7153L22.7673 23.95L18.4449 19.3867L5.46521 33.0894ZM19.9294 17.8195L24.7086 22.8649L30.5311 19.6078C32.2097 18.6674 32.2097 17.1295 30.5311 16.1913L24.6097 12.8785L19.9294 17.8195ZM22.6691 11.7927L7.10043 3.0825C6.61742 2.8116 6.15965 2.68384 5.75353 2.68384C5.70096 2.68384 5.64924 2.68596 5.59842 2.69019L18.4449 16.2523L22.6691 11.7927Z" fill="#4B4B4B"/>
</g>
<path d="M53.2953 7.43262C53.2406 7.24251 53.1638 7.07454 53.0648 6.92871C52.9659 6.78027 52.8448 6.65527 52.7015 6.55371C52.5609 6.44954 52.3995 6.37012 52.2172 6.31543C52.0375 6.26074 51.8383 6.2334 51.6195 6.2334C51.2107 6.2334 50.8513 6.33496 50.5414 6.53809C50.2341 6.74121 49.9945 7.03678 49.8226 7.4248C49.6508 7.81022 49.5648 8.28158 49.5648 8.83887C49.5648 9.39616 49.6495 9.87012 49.8187 10.2607C49.988 10.6514 50.2276 10.9495 50.5375 11.1553C50.8474 11.3584 51.2133 11.46 51.6351 11.46C52.0179 11.46 52.3448 11.3923 52.6156 11.2568C52.889 11.1188 53.0974 10.9248 53.2406 10.6748C53.3864 10.4248 53.4594 10.1292 53.4594 9.78809L53.8031 9.83887H51.7406V8.56543H55.0883V9.57324C55.0883 10.2764 54.9398 10.8805 54.6429 11.3857C54.3461 11.8883 53.9372 12.2764 53.4164 12.5498C52.8955 12.8206 52.2992 12.9561 51.6273 12.9561C50.8773 12.9561 50.2185 12.7907 49.6508 12.46C49.083 12.1266 48.6403 11.654 48.3226 11.042C48.0075 10.4274 47.85 9.69824 47.85 8.85449C47.85 8.20605 47.9437 7.62793 48.1312 7.12012C48.3213 6.6097 48.587 6.17741 48.9281 5.82324C49.2692 5.46908 49.6664 5.19954 50.1195 5.01465C50.5726 4.82975 51.0635 4.7373 51.5922 4.7373C52.0453 4.7373 52.4672 4.80371 52.8578 4.93652C53.2484 5.06673 53.5948 5.25163 53.8969 5.49121C54.2015 5.73079 54.4502 6.01595 54.6429 6.34668C54.8357 6.6748 54.9594 7.03678 55.014 7.43262H53.2953ZM59.0619 12.9639C58.4447 12.9639 57.9135 12.8389 57.4681 12.5889C57.0254 12.3363 56.6843 11.9795 56.4447 11.5186C56.2051 11.055 56.0853 10.5068 56.0853 9.87402C56.0853 9.25684 56.2051 8.71517 56.4447 8.24902C56.6843 7.78288 57.0215 7.4196 57.4564 7.15918C57.8939 6.89876 58.4069 6.76855 58.9955 6.76855C59.3913 6.76855 59.7598 6.83236 60.101 6.95996C60.4447 7.08496 60.7442 7.27376 60.9994 7.52637C61.2572 7.77897 61.4577 8.09668 61.601 8.47949C61.7442 8.8597 61.8158 9.30501 61.8158 9.81543V10.2725H56.7494V9.24121H60.2494C60.2494 9.00163 60.1973 8.78939 60.0931 8.60449C59.989 8.4196 59.8444 8.27506 59.6595 8.1709C59.4773 8.06413 59.265 8.01074 59.0228 8.01074C58.7702 8.01074 58.5463 8.06934 58.351 8.18652C58.1582 8.30111 58.0072 8.45605 57.8978 8.65137C57.7885 8.84408 57.7325 9.05892 57.7299 9.2959V10.2764C57.7299 10.5732 57.7845 10.8298 57.8939 11.0459C58.0059 11.262 58.1635 11.4287 58.3666 11.5459C58.5697 11.6631 58.8106 11.7217 59.0892 11.7217C59.2741 11.7217 59.4434 11.6956 59.597 11.6436C59.7507 11.5915 59.8822 11.5133 59.9916 11.4092C60.101 11.305 60.1843 11.1774 60.2416 11.0264L61.7806 11.1279C61.7025 11.4977 61.5424 11.8206 61.3002 12.0967C61.0606 12.3701 60.7507 12.5837 60.3705 12.7373C59.9929 12.8883 59.5567 12.9639 59.0619 12.9639ZM66.0931 6.84668V8.09668H62.4799V6.84668H66.0931ZM63.3002 5.40918H64.9642V11.0029C64.9642 11.1566 64.9877 11.2764 65.0345 11.3623C65.0814 11.4456 65.1465 11.5042 65.2299 11.5381C65.3158 11.5719 65.4148 11.5889 65.5267 11.5889C65.6049 11.5889 65.683 11.5824 65.7611 11.5693C65.8392 11.5537 65.8991 11.542 65.9408 11.5342L66.2025 12.7725C66.1192 12.7985 66.002 12.8285 65.851 12.8623C65.6999 12.8988 65.5163 12.9209 65.3002 12.9287C64.8991 12.9443 64.5476 12.891 64.2455 12.7686C63.946 12.6462 63.7129 12.4561 63.5463 12.1982C63.3796 11.9404 63.2976 11.6149 63.3002 11.2217V5.40918ZM69.723 12.8467V6.84668H71.3871V12.8467H69.723ZM70.559 6.07324C70.3116 6.07324 70.0993 5.99121 69.9222 5.82715C69.7478 5.66048 69.6605 5.46126 69.6605 5.22949C69.6605 5.00033 69.7478 4.80371 69.9222 4.63965C70.0993 4.47298 70.3116 4.38965 70.559 4.38965C70.8064 4.38965 71.0173 4.47298 71.1918 4.63965C71.3689 4.80371 71.4574 5.00033 71.4574 5.22949C71.4574 5.46126 71.3689 5.66048 71.1918 5.82715C71.0173 5.99121 70.8064 6.07324 70.559 6.07324ZM75.9115 6.84668V8.09668H72.2982V6.84668H75.9115ZM73.1185 5.40918H74.7826V11.0029C74.7826 11.1566 74.806 11.2764 74.8529 11.3623C74.8998 11.4456 74.9649 11.5042 75.0482 11.5381C75.1342 11.5719 75.2331 11.5889 75.3451 11.5889C75.4232 11.5889 75.5013 11.5824 75.5795 11.5693C75.6576 11.5537 75.7175 11.542 75.7592 11.5342L76.0209 12.7725C75.9375 12.7985 75.8204 12.8285 75.6693 12.8623C75.5183 12.8988 75.3347 12.9209 75.1185 12.9287C74.7175 12.9443 74.3659 12.891 74.0638 12.7686C73.7644 12.6462 73.5313 12.4561 73.3646 12.1982C73.198 11.9404 73.1159 11.6149 73.1185 11.2217V5.40918ZM82.2523 12.9639C81.6455 12.9639 81.1208 12.835 80.6781 12.5771C80.238 12.3167 79.8982 11.9548 79.6586 11.4912C79.419 11.0251 79.2992 10.4847 79.2992 9.87012C79.2992 9.25033 79.419 8.70866 79.6586 8.24512C79.8982 7.77897 80.238 7.41699 80.6781 7.15918C81.1208 6.89876 81.6455 6.76855 82.2523 6.76855C82.8591 6.76855 83.3825 6.89876 83.8226 7.15918C84.2653 7.41699 84.6065 7.77897 84.8461 8.24512C85.0857 8.70866 85.2054 9.25033 85.2054 9.87012C85.2054 10.4847 85.0857 11.0251 84.8461 11.4912C84.6065 11.9548 84.2653 12.3167 83.8226 12.5771C83.3825 12.835 82.8591 12.9639 82.2523 12.9639ZM82.2601 11.6748C82.5362 11.6748 82.7666 11.5967 82.9515 11.4404C83.1364 11.2816 83.2758 11.0654 83.3695 10.792C83.4659 10.5186 83.514 10.2074 83.514 9.8584C83.514 9.50944 83.4659 9.19824 83.3695 8.9248C83.2758 8.65137 83.1364 8.43522 82.9515 8.27637C82.7666 8.11751 82.5362 8.03809 82.2601 8.03809C81.9815 8.03809 81.7471 8.11751 81.557 8.27637C81.3695 8.43522 81.2276 8.65137 81.1312 8.9248C81.0375 9.19824 80.9906 9.50944 80.9906 9.8584C80.9906 10.2074 81.0375 10.5186 81.1312 10.792C81.2276 11.0654 81.3695 11.2816 81.557 11.4404C81.7471 11.5967 81.9815 11.6748 82.2601 11.6748ZM87.9515 9.37793V12.8467H86.2875V6.84668H87.8734V7.90527H87.9437C88.0765 7.55631 88.2992 7.28027 88.6117 7.07715C88.9242 6.87142 89.3031 6.76855 89.7484 6.76855C90.1651 6.76855 90.5284 6.8597 90.8383 7.04199C91.1482 7.22428 91.389 7.4847 91.5609 7.82324C91.7328 8.15918 91.8187 8.56022 91.8187 9.02637V12.8467H90.1547V9.32324C90.1573 8.95605 90.0635 8.6696 89.8734 8.46387C89.6833 8.25553 89.4216 8.15137 89.0883 8.15137C88.8643 8.15137 88.6664 8.19954 88.4945 8.2959C88.3252 8.39225 88.1924 8.53288 88.0961 8.71777C88.0023 8.90007 87.9541 9.12012 87.9515 9.37793Z" fill="#4B4B4B"/>
<path d="M55.2285 27.1436C55.1589 26.9016 55.0612 26.6878 54.9352 26.5022C54.8093 26.3133 54.6551 26.1542 54.4728 26.0249C54.2939 25.8924 54.0884 25.7913 53.8564 25.7217C53.6277 25.6521 53.3741 25.6173 53.0957 25.6173C52.5754 25.6173 52.118 25.7465 51.7236 26.0051C51.3325 26.2636 51.0275 26.6398 50.8088 27.1336C50.59 27.6241 50.4807 28.224 50.4807 28.9333C50.4807 29.6426 50.5884 30.2458 50.8038 30.743C51.0192 31.2401 51.3242 31.6196 51.7186 31.8815C52.113 32.14 52.5787 32.2693 53.1156 32.2693C53.6028 32.2693 54.0188 32.1831 54.3635 32.0107C54.7115 31.8351 54.9766 31.5882 55.1589 31.27C55.3445 30.9518 55.4373 30.5756 55.4373 30.1414L55.8748 30.2061H53.2498V28.5853H57.5105V29.868C57.5105 30.7629 57.3216 31.5318 56.9437 32.1748C56.5659 32.8145 56.0455 33.3083 55.3826 33.6563C54.7198 34.001 53.9608 34.1734 53.1057 34.1734C52.1511 34.1734 51.3126 33.9629 50.59 33.542C49.8675 33.1177 49.304 32.5162 48.8997 31.7373C48.4986 30.9551 48.2981 30.0271 48.2981 28.9532C48.2981 28.1279 48.4174 27.3921 48.6561 26.7458C48.898 26.0962 49.2361 25.546 49.6703 25.0953C50.1045 24.6445 50.6099 24.3015 51.1866 24.0661C51.7633 23.8308 52.3881 23.7132 53.0609 23.7132C53.6376 23.7132 54.1745 23.7977 54.6717 23.9667C55.1689 24.1324 55.6097 24.3677 55.9942 24.6727C56.3819 24.9776 56.6985 25.3405 56.9437 25.7615C57.189 26.1791 57.3464 26.6398 57.416 27.1436H55.2285ZM62.538 34.1833C61.7658 34.1833 61.0979 34.0193 60.5345 33.6911C59.9743 33.3597 59.5418 32.899 59.2369 32.309C58.9319 31.7158 58.7795 31.028 58.7795 30.2458C58.7795 29.457 58.9319 28.7676 59.2369 28.1776C59.5418 27.5844 59.9743 27.1237 60.5345 26.7955C61.0979 26.4641 61.7658 26.2984 62.538 26.2984C63.3103 26.2984 63.9765 26.4641 64.5366 26.7955C65.1 27.1237 65.5342 27.5844 65.8391 28.1776C66.1441 28.7676 66.2965 29.457 66.2965 30.2458C66.2965 31.028 66.1441 31.7158 65.8391 32.309C65.5342 32.899 65.1 33.3597 64.5366 33.6911C63.9765 34.0193 63.3103 34.1833 62.538 34.1833ZM62.548 32.5427C62.8993 32.5427 63.1926 32.4433 63.4279 32.2444C63.6632 32.0422 63.8406 31.7671 63.9599 31.4191C64.0825 31.0711 64.1438 30.675 64.1438 30.2309C64.1438 29.7868 64.0825 29.3907 63.9599 29.0427C63.8406 28.6947 63.6632 28.4196 63.4279 28.2174C63.1926 28.0152 62.8993 27.9142 62.548 27.9142C62.1933 27.9142 61.895 28.0152 61.6531 28.2174C61.4144 28.4196 61.2338 28.6947 61.1112 29.0427C60.9918 29.3907 60.9322 29.7868 60.9322 30.2309C60.9322 30.675 60.9918 31.0711 61.1112 31.4191C61.2338 31.7671 61.4144 32.0422 61.6531 32.2444C61.895 32.4433 62.1933 32.5427 62.548 32.5427ZM71.1239 34.1833C70.3517 34.1833 69.6838 34.0193 69.1204 33.6911C68.5603 33.3597 68.1277 32.899 67.8228 32.309C67.5179 31.7158 67.3654 31.028 67.3654 30.2458C67.3654 29.457 67.5179 28.7676 67.8228 28.1776C68.1277 27.5844 68.5603 27.1237 69.1204 26.7955C69.6838 26.4641 70.3517 26.2984 71.1239 26.2984C71.8962 26.2984 72.5624 26.4641 73.1225 26.7955C73.686 27.1237 74.1202 27.5844 74.4251 28.1776C74.73 28.7676 74.8825 29.457 74.8825 30.2458C74.8825 31.028 74.73 31.7158 74.4251 32.309C74.1202 32.899 73.686 33.3597 73.1225 33.6911C72.5624 34.0193 71.8962 34.1833 71.1239 34.1833ZM71.1339 32.5427C71.4852 32.5427 71.7785 32.4433 72.0139 32.2444C72.2492 32.0422 72.4265 31.7671 72.5458 31.4191C72.6685 31.0711 72.7298 30.675 72.7298 30.2309C72.7298 29.7868 72.6685 29.3907 72.5458 29.0427C72.4265 28.6947 72.2492 28.4196 72.0139 28.2174C71.7785 28.0152 71.4852 27.9142 71.1339 27.9142C70.7792 27.9142 70.481 28.0152 70.239 28.2174C70.0004 28.4196 69.8197 28.6947 69.6971 29.0427C69.5778 29.3907 69.5181 29.7868 69.5181 30.2309C69.5181 30.675 69.5778 31.0711 69.6971 31.4191C69.8197 31.7671 70.0004 32.0422 70.239 32.2444C70.481 32.4433 70.7792 32.5427 71.1339 32.5427ZM79.6999 37.0569C79.0139 37.0569 78.4256 36.9624 77.935 36.7735C77.4478 36.5879 77.06 36.3344 76.7717 36.0129C76.4833 35.6914 76.2961 35.3301 76.2099 34.9291L78.1687 34.6656C78.2283 34.818 78.3228 34.9606 78.4521 35.0931C78.5813 35.2257 78.752 35.3318 78.9641 35.4113C79.1796 35.4942 79.4414 35.5356 79.7497 35.5356C80.2104 35.5356 80.5899 35.4229 80.8882 35.1975C81.1898 34.9755 81.3406 34.6026 81.3406 34.0789V32.6819H81.2511C81.1583 32.894 81.0191 33.0945 80.8335 33.2835C80.6479 33.4724 80.4092 33.6265 80.1176 33.7458C79.8259 33.8651 79.4779 33.9248 79.0735 33.9248C78.5001 33.9248 77.9781 33.7922 77.5075 33.5271C77.0401 33.2586 76.6673 32.8493 76.3889 32.2991C76.1138 31.7456 75.9762 31.0463 75.9762 30.2011C75.9762 29.336 76.1171 28.6135 76.3988 28.0335C76.6805 27.4535 77.0551 27.0193 77.5224 26.7309C77.993 26.4426 78.5084 26.2984 79.0685 26.2984C79.4961 26.2984 79.8541 26.3713 80.1424 26.5171C80.4308 26.6597 80.6628 26.8386 80.8384 27.0541C81.0174 27.2662 81.155 27.475 81.2511 27.6805H81.3306V26.3978H83.4336V34.1088C83.4336 34.7584 83.2745 35.3019 82.9563 35.7394C82.6382 36.1769 82.1973 36.5051 81.6339 36.7238C81.0738 36.9459 80.4291 37.0569 79.6999 37.0569ZM79.7447 32.3339C80.0861 32.3339 80.3744 32.2494 80.6097 32.0803C80.8484 31.908 81.0307 31.6627 81.1566 31.3445C81.2859 31.0231 81.3505 30.6386 81.3505 30.1911C81.3505 29.7437 81.2875 29.3559 81.1616 29.0278C81.0356 28.6963 80.8533 28.4395 80.6147 28.2572C80.3761 28.0749 80.0861 27.9838 79.7447 27.9838C79.3967 27.9838 79.1033 28.0782 78.8647 28.2671C78.6261 28.4527 78.4454 28.7113 78.3228 29.0427C78.2002 29.3741 78.1389 29.757 78.1389 30.1911C78.1389 30.632 78.2002 31.0131 78.3228 31.3346C78.4488 31.6528 78.6294 31.8997 78.8647 32.0754C79.1033 32.2477 79.3967 32.3339 79.7447 32.3339ZM87.2369 23.8524V34.0342H85.119V23.8524H87.2369ZM92.4135 34.1833C91.628 34.1833 90.9519 34.0242 90.3851 33.7061C89.8217 33.3846 89.3875 32.9305 89.0826 32.3438C88.7777 31.7539 88.6252 31.0562 88.6252 30.2508C88.6252 29.4653 88.7777 28.7759 89.0826 28.1826C89.3875 27.5893 89.8167 27.127 90.3702 26.7955C90.927 26.4641 91.58 26.2984 92.329 26.2984C92.8328 26.2984 93.3018 26.3796 93.736 26.542C94.1735 26.7011 94.5546 26.9414 94.8795 27.2629C95.2076 27.5844 95.4628 27.9887 95.6451 28.4759C95.8274 28.9598 95.9185 29.5266 95.9185 30.1762V30.7579H89.4704V29.4454H93.9249C93.9249 29.1405 93.8586 28.8704 93.726 28.635C93.5935 28.3997 93.4095 28.2158 93.1742 28.0832C92.9422 27.9473 92.6721 27.8794 92.3638 27.8794C92.0423 27.8794 91.7573 27.9539 91.5087 28.1031C91.2634 28.2489 91.0712 28.4461 90.932 28.6947C90.7928 28.94 90.7215 29.2134 90.7182 29.515V30.7629C90.7182 31.1407 90.7878 31.4672 90.927 31.7423C91.0696 32.0174 91.2701 32.2295 91.5286 32.3786C91.7871 32.5278 92.0937 32.6024 92.4483 32.6024C92.6837 32.6024 92.8991 32.5692 93.0946 32.5029C93.2902 32.4366 93.4576 32.3372 93.5968 32.2046C93.736 32.0721 93.842 31.9097 93.915 31.7174L95.8738 31.8467C95.7743 32.3173 95.5705 32.7283 95.2623 33.0796C94.9573 33.4276 94.5629 33.6994 94.079 33.895C93.5984 34.0872 93.0433 34.1833 92.4135 34.1833ZM100.581 34.0342V23.8524H104.598C105.37 23.8524 106.028 23.9999 106.571 24.2948C107.115 24.5865 107.529 24.9925 107.814 25.5129C108.103 26.0299 108.247 26.6265 108.247 27.3026C108.247 27.9788 108.101 28.5754 107.809 29.0924C107.518 29.6095 107.095 30.0122 106.542 30.3005C105.991 30.5889 105.325 30.733 104.543 30.733H101.983V29.0079H104.195C104.609 29.0079 104.951 28.9366 105.219 28.7941C105.491 28.6483 105.693 28.4478 105.826 28.1926C105.962 27.934 106.029 27.6374 106.029 27.3026C106.029 26.9646 105.962 26.6696 105.826 26.4177C105.693 26.1625 105.491 25.9653 105.219 25.8261C104.947 25.6836 104.603 25.6123 104.185 25.6123H102.733V34.0342H100.581ZM111.723 23.8524V34.0342H109.605V23.8524H111.723ZM115.597 34.1784C115.11 34.1784 114.676 34.0938 114.295 33.9248C113.914 33.7525 113.612 33.4989 113.39 33.1642C113.171 32.8261 113.062 32.4052 113.062 31.9014C113.062 31.4771 113.14 31.1208 113.295 30.8325C113.451 30.5441 113.663 30.3121 113.932 30.1365C114.2 29.9608 114.505 29.8282 114.847 29.7387C115.191 29.6492 115.553 29.5863 115.93 29.5498C116.375 29.5034 116.732 29.4603 117.004 29.4205C117.276 29.3775 117.473 29.3145 117.596 29.2316C117.719 29.1488 117.78 29.0261 117.78 28.8637V28.8339C117.78 28.519 117.68 28.2754 117.482 28.1031C117.286 27.9307 117.008 27.8445 116.646 27.8445C116.265 27.8445 115.962 27.9291 115.737 28.0981C115.511 28.2638 115.362 28.4726 115.289 28.7245L113.33 28.5654C113.43 28.1014 113.625 27.7004 113.917 27.3623C114.209 27.0209 114.585 26.7591 115.045 26.5768C115.509 26.3912 116.046 26.2984 116.656 26.2984C117.081 26.2984 117.487 26.3481 117.874 26.4475C118.265 26.547 118.612 26.7011 118.913 26.9099C119.218 27.1187 119.459 27.3872 119.634 27.7153C119.81 28.0401 119.898 28.4295 119.898 28.8836V34.0342H117.889V32.9752H117.83C117.707 33.2139 117.543 33.4243 117.337 33.6066C117.132 33.7856 116.885 33.9265 116.597 34.0292C116.308 34.1286 115.975 34.1784 115.597 34.1784ZM116.204 32.7167C116.515 32.7167 116.79 32.6554 117.029 32.5328C117.268 32.4068 117.455 32.2378 117.591 32.0257C117.727 31.8135 117.795 31.5732 117.795 31.3048V30.4944C117.728 30.5375 117.637 30.5773 117.521 30.6137C117.409 30.6469 117.281 30.6784 117.139 30.7082C116.996 30.7347 116.853 30.7596 116.711 30.7828C116.568 30.8026 116.439 30.8209 116.323 30.8374C116.075 30.8739 115.857 30.9319 115.672 31.0115C115.486 31.091 115.342 31.1987 115.239 31.3346C115.137 31.4672 115.085 31.6329 115.085 31.8318C115.085 32.1201 115.19 32.3405 115.398 32.493C115.611 32.6421 115.879 32.7167 116.204 32.7167ZM122.575 36.8978C122.306 36.8978 122.055 36.8763 121.819 36.8332C121.587 36.7934 121.395 36.742 121.243 36.6791L121.72 35.0981C121.968 35.1743 122.192 35.2158 122.391 35.2224C122.593 35.229 122.767 35.1826 122.913 35.0832C123.062 34.9838 123.183 34.8147 123.276 34.5761L123.4 34.2529L120.661 26.3978H122.888L124.469 32.0058H124.549L126.145 26.3978H128.387L125.419 34.8595C125.276 35.2704 125.082 35.6284 124.837 35.9333C124.595 36.2416 124.288 36.4785 123.917 36.6443C123.546 36.8133 123.099 36.8978 122.575 36.8978Z" fill="#4B4B4B"/>
<defs>
<clipPath id="clip0_251_5">
<rect width="34" height="34" fill="white" transform="translate(0.546875 0.84668)"/>
</clipPath>
</defs>
</svg>
